<svg width="108" height="24" viewBox="0 0 108 24" fill="none" xmlns="http://www.w3.org/2000/svg">
<path d="M12.2664 0.0112305H11.7298C10.1891 0.0112304 8.66348 0.314755 7.24011 0.904469C5.81674 1.49418 4.52349 2.35853 3.43423 3.44815C2.34497 4.53776 1.48104 5.83129 0.891784 7.25485C0.302532 8.67842 -0.000499284 10.2041 6.17496e-07 11.7448V12.2662C4.53829e-07 15.3775 1.23569 18.3614 3.43534 20.5618C5.63499 22.7621 8.6185 23.9988 11.7298 23.9998H12.2664C15.3777 23.9988 18.3612 22.7621 20.5608 20.5618C22.7605 18.3614 23.9962 15.3775 23.9962 12.2662V11.7334C23.9942 8.62379 22.7575 5.64223 20.5579 3.44411C18.3584 1.246 15.376 0.0112298 12.2664 0.0112305ZM18.6223 12.1597C18.6223 13.0093 18.4549 13.8507 18.1298 14.6356C17.8046 15.4206 17.328 16.1339 16.7272 16.7347C16.1264 17.3355 15.4132 17.812 14.6282 18.1372C13.8432 18.4623 13.0019 18.6297 12.1522 18.6297H11.8592C10.1432 18.6297 8.49754 17.948 7.28418 16.7347C6.07081 15.5213 5.38915 13.8756 5.38915 12.1597V11.8628C5.38915 10.1468 6.07081 8.50116 7.28418 7.2878C8.49754 6.07443 10.1432 5.39277 11.8592 5.39277H12.1522C13.0019 5.39277 13.8432 5.56012 14.6282 5.88527C15.4132 6.21042 16.1264 6.687 16.7272 7.2878C17.328 7.88859 17.8046 8.60185 18.1298 9.38683C18.4549 10.1718 18.6223 11.0131 18.6223 11.8628V12.1597Z" fill="white"/>
<path d="M48.1065 0.509766V23.5088H42.7516L32.5975 11.2538V23.5088H26.2226V0.509766H31.5775L41.7316 12.7648V0.509766H48.1065Z" fill="white"/>
<path d="M50.4628 0.51002H61.3401C63.6523 0.466548 65.9441 0.949381 68.0423 1.92201C69.9106 2.7923 71.4864 4.18571 72.5789 5.93343C73.6807 7.77012 74.2389 9.88164 74.1888 12.0229C74.2389 14.1641 73.6807 16.2756 72.5789 18.1123C71.487 19.8596 69.9109 21.252 68.0423 22.1199C65.945 23.0956 63.6528 23.5799 61.3401 23.5357H50.4628V0.51002ZM61.0775 18.3216C63.0451 18.3216 64.6322 17.7622 65.8272 16.6432C67.0223 15.5243 67.616 13.9791 67.616 12.0115C67.616 10.0438 67.0185 8.4948 65.8272 7.37586C64.636 6.25693 63.0451 5.70127 61.0775 5.70127H56.9671V18.3216H61.0775Z" fill="white"/>
<path d="M103.399 1.66711L103.265 1.7242C102.884 1.88899 102.538 2.1275 102.248 2.42607C101.959 2.72464 101.731 3.0774 101.578 3.46416C101.425 3.85092 101.349 4.26407 101.356 4.67997C101.363 5.09586 101.452 5.50632 101.617 5.88785L101.675 6.02106C102.009 6.79101 102.635 7.3969 103.416 7.70584C104.196 8.01477 105.067 8.00153 105.838 7.66901L105.971 7.60812C106.742 7.27448 107.349 6.6484 107.658 5.86757C107.967 5.08674 107.953 4.21513 107.619 3.44446L107.559 3.31126C107.393 2.92968 107.155 2.58441 106.856 2.29521C106.557 2.006 106.204 1.77854 105.818 1.62583C105.431 1.47312 105.018 1.39816 104.602 1.40524C104.186 1.41233 103.776 1.50131 103.395 1.66711" fill="#FF0099"/>
<path d="M87.958 0.0114201H87.4252C85.8845 0.0114201 84.3589 0.314944 82.9355 0.904659C81.5121 1.49437 80.2189 2.35872 79.1296 3.44834C78.0404 4.53795 77.1764 5.83148 76.5872 7.25504C75.9979 8.67861 75.6949 10.2043 75.6954 11.745V12.2664C75.6954 15.3777 76.9311 18.3616 79.1307 20.562C81.3304 22.7623 84.3139 23.999 87.4252 24H87.958C91.0699 24 94.0544 22.7638 96.2549 20.5633C98.4554 18.3628 99.6916 15.3784 99.6916 12.2664V11.7336C99.6916 8.62165 98.4554 5.63716 96.2549 3.43669C94.0544 1.23621 91.0699 0 87.958 0" fill="white"/>
</svg>
