<svg xmlns="http://www.w3.org/2000/svg" width="97" height="36" viewBox="0 0 97 36" fill="none"><path d="M92.5519 1.46581L92.447 1.51814C91.0312 2.146 90.3757 3.79414 90.9787 5.20683L91.0312 5.31147C91.6604 6.72416 93.3122 7.37819 94.728 6.77648L94.8329 6.72416C96.2487 6.0963 96.9042 4.44816 96.3011 3.03547L96.2487 2.93083C95.6457 1.49198 93.9939 0.837952 92.5519 1.46581Z" fill="white"></path><path d="M10.907 0H10.4351C4.66693 0 0 4.65665 0 10.4121V10.8829C0 16.6384 4.66693 21.295 10.4351 21.295H10.907C16.6751 21.295 21.342 16.6384 21.342 10.8829V10.4121C21.342 4.65665 16.6751 0 10.907 0ZM16.544 10.7783C16.544 13.9438 13.9746 16.5337 10.7759 16.5337H10.5137C7.34124 16.5337 4.74559 13.9699 4.74559 10.7783V10.5167C4.74559 7.35122 7.31502 4.76129 10.5137 4.76129H10.7759C13.9484 4.76129 16.544 7.32506 16.544 10.5167V10.7783Z" fill="white"></path><path d="M78.842 0H78.3701C72.602 0 67.9351 4.65665 67.9351 10.4121V10.8829C67.9351 16.6384 72.602 21.295 78.3701 21.295H78.842C84.6102 21.295 89.2771 16.6384 89.2771 10.8829V10.4121C89.2771 4.65665 84.6102 0 78.842 0ZM78.7372 16.5075H78.475H78.7372Z" fill="white"></path><path d="M42.762 0.444519V20.85H38.0164L28.9972 9.9671V20.85H23.3077V0.444519H28.0795L37.0988 11.3275V0.444519H42.762Z" fill="white"></path><path d="M44.8591 0.444519H54.5338C56.7624 0.444519 58.7551 0.863094 60.4855 1.70024C62.2159 2.53739 63.5531 3.71464 64.5232 5.25813C65.467 6.80163 65.9652 8.58057 65.9652 10.6473C65.9652 12.714 65.4933 14.4929 64.5232 16.0364C63.5793 17.5799 62.2159 18.7572 60.4855 19.5943C58.7551 20.4315 56.7624 20.85 54.5338 20.85H44.8591V0.444519ZM54.2979 16.2457C56.0545 16.2457 57.4703 15.7487 58.5191 14.7545C59.5678 13.7604 60.1184 12.4001 60.1184 10.6473C60.1184 8.8945 59.5941 7.53413 58.5191 6.54002C57.4441 5.5459 56.0545 5.04884 54.2979 5.04884H50.6535V16.2457H54.2979Z" fill="white"></path><path d="M6.82783 28.9828C6.52961 28.8259 6.20784 28.6925 5.86252 28.5826C5.51721 28.4727 5.18367 28.4178 4.8619 28.4178C4.41456 28.4178 4.06139 28.5198 3.80241 28.7239C3.54342 28.9201 3.41393 29.1947 3.41393 29.5479C3.41393 29.7912 3.50026 30.0031 3.67292 30.1836C3.84557 30.3641 4.06924 30.5211 4.34392 30.6545C4.61861 30.7879 4.90898 30.9135 5.21506 31.0312C5.56822 31.1568 5.90961 31.3176 6.23923 31.5138C6.56885 31.7022 6.83961 31.9573 7.0515 32.279C7.2634 32.6008 7.36935 33.0324 7.36935 33.574C7.36935 34.0213 7.25555 34.4294 7.02796 34.7983C6.80037 35.1671 6.47467 35.4614 6.05088 35.6812C5.63493 35.8931 5.13265 35.999 4.54405 35.999C3.99469 35.999 3.47279 35.9127 2.97836 35.74C2.49178 35.5595 2.07191 35.3476 1.71875 35.1043L2.27204 34.1272C2.54672 34.3391 2.88419 34.5236 3.28444 34.6805C3.68469 34.8375 4.06532 34.916 4.42633 34.916C4.69316 34.916 4.95215 34.8728 5.20329 34.7865C5.45442 34.6923 5.6624 34.5471 5.82721 34.3509C5.99986 34.1547 6.08619 33.8957 6.08619 33.574C6.08619 33.3071 6.01164 33.0795 5.86252 32.8912C5.71341 32.7028 5.51721 32.5419 5.27392 32.4085C5.03848 32.2751 4.78342 32.1574 4.50873 32.0554C4.2419 31.9533 3.96722 31.8435 3.68469 31.7257C3.41001 31.6002 3.15494 31.4471 2.9195 31.2666C2.69191 31.0861 2.50356 30.8664 2.35444 30.6074C2.21318 30.3406 2.14254 30.0188 2.14254 29.6421C2.14254 29.179 2.24849 28.7788 2.46039 28.4413C2.68014 28.1039 2.98229 27.837 3.36684 27.6408C3.7514 27.4446 4.19089 27.3387 4.68531 27.323C5.25037 27.323 5.7448 27.3936 6.1686 27.5349C6.59239 27.6683 6.96517 27.8331 7.28694 28.0293L6.82783 28.9828Z" fill="white"></path><path d="M24.5216 27.3701C25.4634 27.3701 26.2011 27.6055 26.7348 28.0764C27.2685 28.5473 27.5353 29.2065 27.5353 30.0541C27.5353 30.3916 27.4843 30.7251 27.3823 31.0547C27.2802 31.3843 27.1154 31.6865 26.8878 31.9612C26.6681 32.228 26.3738 32.4438 26.0049 32.6086C25.6439 32.7656 25.2005 32.8441 24.6747 32.8441H23.4151V35.9048H22.1908V27.3701H24.5216ZM24.6629 31.6433C24.9847 31.6433 25.2515 31.5923 25.4634 31.4903C25.6831 31.3804 25.8519 31.2431 25.9696 31.0783C26.0952 30.9135 26.1815 30.7408 26.2286 30.5603C26.2835 30.3798 26.311 30.2189 26.311 30.0776C26.311 29.8658 26.2639 29.6421 26.1697 29.4066C26.0756 29.1712 25.9107 28.9711 25.6753 28.8063C25.4477 28.6415 25.1299 28.559 24.7218 28.559H23.4151V31.6433H24.6629Z" fill="white"></path><path d="M40.5111 35.9048L44.2664 27.0169H44.337L48.0923 35.9048H46.6679L45.832 33.7623H42.6183L41.7354 35.9048H40.5111ZM43.0421 32.7028H45.4083L44.2546 29.7598L43.0421 32.7028Z" fill="white"></path><path d="M68.3895 35.2574C68.2561 35.3437 68.0638 35.4496 67.8126 35.5752C67.5694 35.6929 67.279 35.795 66.9415 35.8813C66.6119 35.9676 66.2509 36.0069 65.8585 35.999C65.1914 35.9912 64.5949 35.8734 64.0691 35.6458C63.5433 35.4182 63.092 35.1082 62.7153 34.7158C62.3465 34.3156 62.0639 33.8604 61.8677 33.3503C61.6715 32.8323 61.5734 32.283 61.5734 31.7022C61.5734 31.0587 61.6755 30.4701 61.8795 29.9364C62.0914 29.3949 62.3857 28.9279 62.7624 28.5355C63.1391 28.1353 63.5825 27.8253 64.0927 27.6055C64.6106 27.3858 65.1757 27.2759 65.7878 27.2759C66.3058 27.2759 66.7767 27.3465 67.2005 27.4878C67.6243 27.6291 67.9814 27.7899 68.2718 27.9704L67.7773 29.1241C67.5497 28.9671 67.2672 28.818 66.9297 28.6768C66.6001 28.5355 66.2313 28.4649 65.8232 28.4649C65.2895 28.4649 64.7951 28.6061 64.3399 28.8887C63.8925 29.1712 63.5315 29.5518 63.2568 30.0306C62.99 30.5093 62.8566 31.0469 62.8566 31.6433C62.8566 32.2476 62.9782 32.7892 63.2215 33.2679C63.4727 33.7466 63.8258 34.1233 64.281 34.398C64.7362 34.6727 65.2699 34.81 65.882 34.81C66.3215 34.81 66.7061 34.7433 67.0357 34.6099C67.3731 34.4765 67.6478 34.3234 67.8597 34.1508L68.3895 35.2574Z" fill="white"></path><path d="M83.2262 27.3701H88.818V28.559H84.4505V31.0194H88.3471V32.2084H84.4505V34.7158H88.9828V35.9048H83.2262V27.3701Z" fill="white"></path></svg>